<svg id="Livello_4" data-name="Livello 4" xmlns="http://www.w3.org/2000/svg" viewBox="0 0 1817.55 2954.77" fill="transparent"><defs>
    <linearGradient id="grad1" x1="0%" y1="0%" x2="100%" y2="0%">
      <stop offset="0%" style="stop-color:rgba(96,221,142,1); stop-opacity:1" />
      <stop offset="100%" style="stop-color:rgba(24,138,141,1);stop-opacity:1" />
    </linearGradient>
  </defs><title>SplitRise try2+</title><polygon points="1361.23 1588.4 453.75 2495.89 453.75 2269.01 680.62 2042.14 794.05 1928.71 907.49 1815.27 1020.93 1701.84 1134.36 1588.4 1020.93 1474.96 907.48 1361.51 1134.35 1361.51 1247.8 1474.96 1361.23 1588.4" fill="url(#grad1)"/><polygon points="1817.55 1590.97 1704.11 1704.41 1477.24 1931.28 1363.81 2044.71 1361.53 2042.44 1361.53 2046.99 1250.37 2158.15 1136.93 2271.59 1023.5 2385.02 453.75 2954.77 453.75 2725.33 908.78 2270.3 1022.21 2156.86 1135.65 2043.43 1249.09 1929.99 1362.52 1816.56 1475.96 1703.12 1589.39 1589.68 1590.68 1588.4 1588.11 1588.4 1474.67 1474.96 1361.22 1361.51 1588.09 1361.51 1817.55 1590.97" fill="url(#grad1)"/><polygon points="1361.53 453.74 1361.53 680.62 1134.36 907.78 1020.93 1021.22 680.62 1361.53 688.42 1369.32 794.06 1474.96 907.49 1588.4 680.62 1588.4 567.18 1474.96 461.54 1369.32 453.75 1361.53 907.49 907.78 1020.93 794.35 1361.53 453.74" fill="url(#grad1)"/><polygon points="1361.53 0 1361.53 226.87 907.49 680.91 794.06 794.35 680.62 907.78 567.18 1021.22 453.75 1134.66 340.31 1248.09 226.88 1361.53 453.75 1588.4 226.88 1588.4 0 1361.53 1361.53 0" fill="url(#grad1)"/></svg>